<svg id="icons" height="512" viewBox="0 0 64 64" width="512" xmlns="http://www.w3.org/2000/svg"><g id="Laptop-File-Online-Business-User"><path d="m56 13v30h-48v-30a2.006 2.006 0 0 1 2-2h44a2.006 2.006 0 0 1 2 2z" fill="#5aaae7"/><path d="m54 18a13 13 0 1 1 -25-5 11.6 11.6 0 0 1 1.06-2h21.88a11.6 11.6 0 0 1 1.06 2 13.007 13.007 0 0 1 1 5z" fill="#3d9ae2"/><path d="m52 16a13 13 0 1 1 -1-5 13 13 0 0 1 1 5z" fill="#ffd422"/><path d="m46.11 20.41-2.11-1.41-1.85-1.23a3.024 3.024 0 0 0 1.85-2.77v-3a3 3 0 0 0 -6 0v3a2.993 2.993 0 0 0 .88 2.12 1.2 1.2 0 0 0 .12.11 2.921 2.921 0 0 0 .85.54l-1.85 1.23-2.11 1.41a1.981 1.981 0 0 0 -.89 1.66v2.93h12v-2.93a1.981 1.981 0 0 0 -.89-1.66z" fill="#f7c700"/><path d="m45 20.07v2.93h-12v-2.93a1.981 1.981 0 0 1 .89-1.66l2.11-1.41 1.85-1.23a2.99 2.99 0 0 0 2.3 0l1.85 1.23 2.11 1.41a1.981 1.981 0 0 1 .89 1.66z" fill="#5aaae7"/><path d="m39 19-3-2 1.85-1.23a2.99 2.99 0 0 0 2.3 0l1.85 1.23z" fill="#ffb655"/><path d="m45 20.07v2.93h-12v-2.93a1.981 1.981 0 0 1 .89-1.66l2.11-1.41 3 2 3-2 2.11 1.41a1.981 1.981 0 0 1 .89 1.66z" fill="#00ccb3"/><path d="m61 55v4a2.006 2.006 0 0 1 -2 2h-54a2.006 2.006 0 0 1 -2-2v-4z" fill="#acabb1"/><path d="m56 43 5 12h-58l5-12z" fill="#c6c5ca"/><path d="m27 33h29v8h-29z" fill="#3d9ae2"/><path d="m25 31h36v8h-36z" fill="#ff9811"/><path d="m42 12v1a2.993 2.993 0 0 1 -5 2.23 1.2 1.2 0 0 1 -.12-.11 2.993 2.993 0 0 1 -.88-2.12v-1h1.17a2.006 2.006 0 0 0 1.42-.59l1.41-1.41z" fill="#ffc477"/><path d="m39 7a3 3 0 0 0 -3 3v2h1.17a2.006 2.006 0 0 0 1.42-.59l.41-.41 1-1 1 1 1 1v-2a3 3 0 0 0 -3-3z" fill="#57565c"/><path d="m23 15v14a2.006 2.006 0 0 1 -2 2h-13v-18a2.006 2.006 0 0 1 2-2h9z" fill="#3d9ae2"/><path d="m21 13h-4a2.006 2.006 0 0 1 -2-2v-4z" fill="#bcbec0"/><path d="m17 13a2.006 2.006 0 0 1 -2-2v-4h-10a2.006 2.006 0 0 0 -2 2v18a2.006 2.006 0 0 0 2 2h14a2.006 2.006 0 0 0 2-2v-14z" fill="#e6e7e8"/><g fill="#898890"><path d="m10 50h2v2h-2z"/><path d="m14 50h2v2h-2z"/><path d="m48 50h2v2h-2z"/><path d="m52 50h2v2h-2z"/><path d="m15 46h2v2h-2z"/><path d="m11 46h2v2h-2z"/><path d="m19 46h2v2h-2z"/><path d="m23 46h2v2h-2z"/><path d="m27 46h2v2h-2z"/><path d="m31 46h2v2h-2z"/><path d="m35 46h2v2h-2z"/><path d="m39 46h2v2h-2z"/><path d="m43 46h2v2h-2z"/><path d="m47 46h2v2h-2z"/><path d="m51 46h2v2h-2z"/><path d="m18 50h4v2h-4z"/><path d="m42 50h4v2h-4z"/><path d="m24 50h16v2h-16z"/></g><path d="m42 34h2v5h-2z" fill="#ee8700"/><path d="m30 34h2v5h-2z" fill="#ee8700"/><path d="m38 36h2v3h-2z" fill="#ee8700"/><path d="m34 36h2v3h-2z" fill="#ee8700"/><path d="m54 34h2v5h-2z" fill="#ee8700"/><path d="m46 36h2v3h-2z" fill="#ee8700"/><path d="m50 36h2v3h-2z" fill="#ee8700"/><path d="m6 16h12v2h-12z" fill="#bcbec0"/><path d="m6 20h12v2h-12z" fill="#bcbec0"/><path d="m6 24h12v2h-12z" fill="#bcbec0"/><path d="m6 12h6v2h-6z" fill="#bcbec0"/></g></svg>